<svg xmlns="http://www.w3.org/2000/svg" version="1.1" xmlns:xlink="http://www.w3.org/1999/xlink" xmlns:svgjs="http://svgjs.dev/svgjs" width="100%" height="100%" viewBox="0 0 1000 600"><rect width="1000" height="600" x="0" y="0" fill="#F54040 "/><g><rect width="333.3333333333333" height="333.3333333333333" rx="13.333333333333334" ry="13.333333333333334" y="353.299690869458" fill="#006838" transform="matrix(0.37755515706607934,0,0,0.3775551570660794,0,103.6840221057237)" x="331.0774536132812"/><path d="M473.66105113410475 551.1739421881223L473.66105113410475 551.1739421881223Q476.27429161072297 548.9458108343741 479.1901178267391 548.9458108343741L479.1901178267391 548.9458108343741Q483.6463805342354 548.9458108343741 484.3065676020126 550.1836615864564L484.3065676020126 550.1836615864564Q488.075135447241 557.7483050714038 488.075135447241 575.1332311895377L488.075135447241 575.1332311895377Q488.075135447241 587.2366607654535 485.3793715871506 592.655696280125L485.3793715871506 592.655696280125Q484.4991221634476 594.1961327716052 483.5363493562725 594.1961327716052L483.5363493562725 594.1961327716052L376.77859893779606 594.1961327716052Q365.25283304618523 594.1961327716052 365.25283304618523 587.3191841489257L365.25283304618523 587.3191841489257Q365.25283304618523 583.6606474816602 366.8207773321562 581.7075940728192L366.8207773321562 581.7075940728192Q370.0942048765516 582.6978746744851 373.20258565400275 582.6978746744851Q376.28345863696313 582.6978746744851 378.51158999071134 582.2027343736521Q380.7397213444595 581.7075940728192 382.6652669588097 580.167157581339L382.6652669588097 580.167157581339Q387.31408422774103 576.5911442975456 387.31408422774103 568.0912357999138L387.31408422774103 568.0912357999138L387.31408422774103 470.1084718239764Q387.31408422774103 461.7185945043075 380.54716678302447 459.3804319725964L380.54716678302447 459.3804319725964Q378.62162116867415 458.7202449048192 376.5310287873796 458.1700890150048Q374.44043640608504 457.6474409196812 372.56990638071625 457.12479282435754Q370.6718685608567 456.5746369345432 369.24146324733937 455.91444986676595L369.24146324733937 455.91444986676595Q365.9405279084532 454.15395101936 365.9405279084532 451.15560141987174L365.9405279084532 451.15560141987174Q365.9405279084532 447.19447901320837 367.4809643999334 445.46148796029314L367.4809643999334 445.46148796029314Q369.24146324733937 445.95662826112607 370.9744543002546 445.95662826112607L370.9744543002546 445.95662826112607L469.8924832888764 445.95662826112607Q478.805008703869 445.95662826112607 481.0331400576172 447.5795881360784L481.0331400576172 447.5795881360784Q485.0767858477527 450.4954143520945 485.0767858477527 460.34320477977155L485.0767858477527 460.34320477977155Q485.0767858477527 469.83339387906926 483.48133376729106 475.83009307804576Q481.88588168682946 481.82679227702226 481.2256946190522 482.98211964563245L481.2256946190522 482.98211964563245Q480.23541401738635 484.7151106985477 477.45712677382386 484.7151106985477L477.45712677382386 484.7151106985477Q473.3859731891976 484.7151106985477 471.87304449220807 483.6973223023911Q470.38762358970934 482.67953390623455 470.27759241174647 482.2119013998923L470.27759241174647 482.2119013998923Q469.0397416596641 468.37548077106123 465.931360882213 464.5518973368514Q462.8504878992526 460.7283139026416 458.64179534217277 459.325416383615Q454.4331027850929 457.92251886458837 447.6661853403763 457.92251886458837L447.6661853403763 457.92251886458837L426.1000744596534 457.92251886458837Q415.83966711461557 457.92251886458837 413.556520171886 459.9580956569015Q411.30088102364715 461.9936724492146 410.72321733934206 464.66192851481424Q410.14555365503696 467.30267678592315 410.14555365503696 471.4838615485123L410.14555365503696 471.4838615485123L410.14555365503696 512.6630299011172L415.83966711461557 512.77306107908Q437.21322343390347 512.77306107908 455.47839897574016 509.00449323385163L455.47839897574016 509.00449323385163Q456.8537887002761 509.6646803016289 457.8990848909234 512.8280766680614Q458.97188887606137 515.9639652400033 458.97188887606137 519.0448382229637L458.97188887606137 519.0448382229637Q458.97188887606137 524.2713191762001 457.23889782314615 528.1499181993913L457.23889782314615 528.1499181993913Q450.8570895012996 528.7275818836964 442.522227770612 528.7275818836964Q434.2148738344152 528.7275818836964 410.14555365503696 526.0043102291154L410.14555365503696 526.0043102291154L410.14555365503696 569.631672291394Q410.14555365503696 576.8937300369436 413.9966448837375 579.3969393355989L413.9966448837375 579.3969393355989Q417.29758022262365 581.5150395113842 425.7974887202555 581.5150395113842L425.7974887202555 581.5150395113842L440.4041275948267 581.1299303885141Q461.5851293526796 580.359712142774 467.96693767452615 575.2432623675005L467.96693767452615 575.2432623675005Q471.54295095831947 572.3274361514844 472.6982783269296 567.5960954990809Q473.8536056955398 562.8647548466774 473.8536056955398 558.0783986052925Q473.8536056955398 553.2920423639075 473.66105113410475 551.1739421881223ZM577.0628506247135 594.9663510173453L577.0628506247135 594.9663510173453Q574.8347192709655 594.1961327716052 567.4901381419438 594.1961327716052L567.4901381419438 594.1961327716052L517.7835534972164 594.1961327716052Q512.7496271054149 594.1961327716052 509.7512775059267 592.6006806911436Q506.7529279064385 591.0052286106819 506.7529279064385 586.7415204646206L506.7529279064385 586.7415204646206Q506.7529279064385 583.6606474816602 508.18333321995584 581.817625250782L508.18333321995584 581.817625250782Q511.869377681712 582.7803980579572 515.2528364040704 582.7803980579572Q518.6362951264286 582.7803980579572 520.561840740779 582.0651954011986Q522.51489414962 581.3224849499492 523.9728072576279 579.5069705135618L523.9728072576279 579.5069705135618Q526.8611256791532 575.6283714903706 526.8611256791532 566.6333226919057L526.8611256791532 566.6333226919057L526.8611256791532 469.53080813967136Q526.8611256791532 460.5357593412066 516.2156092112455 458.33513578194913L516.2156092112455 458.33513578194913Q509.5587229444917 456.9597460574132 507.5231461521786 455.226755004498Q505.48756935986546 453.49376395158276 505.48756935986546 451.45818715926964L505.48756935986546 451.45818715926964Q505.48756935986546 447.00192445177333 507.02800585134565 445.46148796029314L507.02800585134565 445.46148796029314Q508.78850469875164 445.95662826112607 510.21891001226896 445.95662826112607L510.21891001226896 445.95662826112607L534.2057068081751 445.95662826112607L568.645465510554 444.9663476594602Q613.8957874477851 444.9663476594602 625.889185845738 469.64083931763423L625.889185845738 469.64083931763423Q630.2354173752715 478.52585693813614 630.2354173752715 487.43838235312876Q630.2354173752715 496.32339997363067 628.9700588286985 502.62268491200507Q627.7322080766162 508.89446205588877 624.6788428881464 514.8361456658838Q621.6254776996768 520.8053370703697 616.5915513078753 526.0593258180968Q611.5851327105647 531.3408223603146 604.0204892256172 535.3019447669781L604.0204892256172 535.3019447669781Q587.6808592981308 543.8018532646099 562.2636571887074 543.8018532646099L562.2636571887074 543.8018532646099L558.5776127269512 543.8018532646099Q555.8818488668608 543.8018532646099 555.8818488668608 540.3358711587794L555.8818488668608 540.3358711587794Q555.8818488668608 532.6887042903597 560.0355258349591 531.7259314831847L560.0355258349591 531.7259314831847Q596.4008301516883 532.4961497289248 604.0204892256172 510.04978942449895L604.0204892256172 510.04978942449895Q606.3586517573283 503.00779403487513 606.3586517573283 494.97551804358545Q606.3586517573283 486.94324205229583 604.6256607044129 480.23134019656067Q602.865161857007 473.49193054633474 598.3263757660386 468.292957387589L598.3263757660386 468.292957387589Q588.2585229824358 456.8772226739411 565.0694522267606 456.8772226739411L565.0694522267606 456.8772226739411Q555.6892943054256 456.8772226739411 552.5809135279746 460.92086846407665L552.5809135279746 460.92086846407665Q549.6925951064493 464.5243895423607 549.6925951064493 475.4449839551757L549.6925951064493 475.4449839551757L549.6925951064493 572.0523582065772Q550.1602276127915 579.589493897034 561.6859935044022 581.2399615664771L561.6859935044022 581.2399615664771Q572.0289242329122 582.6978746744851 574.5321335315675 583.9357254265674Q577.0628506247135 585.2010839731404 577.8330688704536 586.411426930732Q578.6032871161938 587.6217698883236 578.6032871161938 589.3547609412389L578.6032871161938 589.3547609412389Q578.6032871161938 593.040805402995 577.0628506247135 594.9663510173453Z " fill="#f7f7f7" transform="matrix(0.37755515706607934,0,0,0.3775551570660794,0,103.6840221057237)"/><path d="M841.7864412985879 556.0465320332673L841.7864412985879 556.0465320332673Q844.0533838258559 554.1136652468599 846.5828144352287 554.1136652468599L846.5828144352287 554.1136652468599Q850.4485480080436 554.1136652468599 851.0212492780903 555.1874801281974L851.0212492780903 555.1874801281974Q854.29041902794 561.7496821808153 854.29041902794 576.8308156253773L854.29041902794 576.8308156253773Q854.29041902794 587.330338909566 851.951888841916 592.0312618345323L851.951888841916 592.0312618345323Q851.1882871485205 593.3675647979745 850.3530977963692 593.3675647979745L850.3530977963692 593.3675647979745L757.7425299192411 593.3675647979745Q747.7441202463432 593.3675647979745 747.7441202463432 587.4019265683218L747.7441202463432 587.4019265683218Q747.7441202463432 584.2282070301466 749.1042857627039 582.5339657729252L749.1042857627039 582.5339657729252Q751.9439295600185 583.3930176779952 754.6403980398217 583.3930176779952Q757.313003966706 583.3930176779952 759.2458707531135 582.9634917254602Q761.178737539521 582.5339657729252 762.8491162438237 581.1976628094831L762.8491162438237 581.1976628094831Q766.8818876870689 578.0955309300637 766.8818876870689 570.722002078213L766.8818876870689 570.722002078213L766.8818876870689 485.7235885821216Q766.8818876870689 478.4455099419454 761.0116996690907 476.4171929438634L761.0116996690907 476.4171929438634Q759.341320964788 475.8444916738168 757.5277669429735 475.36724061544453Q755.7142129211592 474.91385210999096 754.0915593226936 474.4604636045374Q752.4450431713094 473.98321254616513 751.2041904195416 473.4105112761185L751.2041904195416 473.4105112761185Q748.3406840693084 471.8833078893274 748.3406840693084 469.28228962119886L748.3406840693084 469.28228962119886Q748.3406840693084 465.8460820009189 749.6769870327506 464.3427411670464L749.6769870327506 464.3427411670464Q751.2041904195416 464.77226711958144 752.7075312534141 464.77226711958144L752.7075312534141 464.77226711958144L838.5172715487382 464.77226711958144Q846.2487386943681 464.77226711958144 848.1816054807756 466.18015774177945L848.1816054807756 466.18015774177945Q851.6894007598113 468.7095883511522 851.6894007598113 477.25238229601484L851.6894007598113 477.25238229601484Q851.6894007598113 485.4849630529355 850.305372690532 490.6869995891926Q848.9213446212525 495.88903612544976 848.3486433512059 496.89126334803143L848.3486433512059 496.89126334803143Q847.4895914461359 498.3946041819039 845.0794736013562 498.3946041819039L845.0794736013562 498.3946041819039Q841.5478157694018 498.3946041819039 840.2353753588783 497.5116897239153Q838.9467975012732 496.6287752659267 838.8513472895988 496.2231118663103L838.8513472895988 496.2231118663103Q837.7775324082613 484.2202477482491 835.0810639284583 480.9033528925622Q832.4084580015739 477.58645803687534 828.7574874050264 476.3694678380262Q825.106516808479 475.15247763917705 819.2363287905008 475.15247763917705L819.2363287905008 475.15247763917705L800.5280873023099 475.15247763917705Q791.6273550636682 475.15247763917705 789.6467631714235 476.9183065551543Q787.6900338320974 478.6841354711314 787.1889202208066 480.9988031042367Q786.6878066095159 483.2896081844233 786.6878066095159 486.91671622805217L786.6878066095159 486.91671622805217L786.6878066095159 522.6389579472124L791.6273550636682 522.7344081588868Q810.1685586814287 522.7344081588868 826.0132938193863 519.4652384090372L826.0132938193863 519.4652384090372Q827.2064214653168 520.0379396790838 828.1131984762239 522.782133264724Q829.0438380400498 525.5024642974456 829.0438380400498 528.17507022433L829.0438380400498 528.17507022433Q829.0438380400498 532.7089552788661 827.5404972061773 536.0735752403903L827.5404972061773 536.0735752403903Q822.0043849290596 536.574688851681 814.7740313947205 536.574688851681Q807.5675404133002 536.574688851681 786.6878066095159 534.2122961127386L786.6878066095159 534.2122961127386L786.6878066095159 572.0583050416551Q786.6878066095159 578.3580190121684 790.0285640181213 580.529511327762L790.0285640181213 580.529511327762Q792.8920703683546 582.3669279024949 800.2655992202052 582.3669279024949L800.2655992202052 582.3669279024949L812.9366148199875 582.0328521616344Q831.3107805673178 581.3647006799133 836.8468928444355 576.9262658370517L836.8468928444355 576.9262658370517Q839.9490247238549 574.3968352276789 840.9512519464365 570.2924761256779Q841.9534791690181 566.1881170236769 841.9534791690181 562.0360328158387Q841.9534791690181 557.8839486080003 841.7864412985879 556.0465320332673ZM915.6171800287694 593.7970907505095L915.6171800287694 593.7970907505095Q913.9468013244667 593.3675647979745 910.248105622082 593.3675647979745L910.248105622082 593.3675647979745L883.4981838003195 593.3675647979745Q875.432640913829 593.3675647979745 873.165698386561 590.5040584477412L873.165698386561 590.5040584477412Q872.2589213756538 589.4302435664038 872.2589213756538 587.9984903912871L872.2589213756538 587.9984903912871Q872.2589213756538 584.4668325593327 873.595224339096 582.79645385503L873.595224339096 582.79645385503Q875.5996787842593 583.4646053367511 878.1529719465506 583.4646053367511Q880.7301276617605 583.4646053367511 882.0187055193655 581.3647006799133Q883.3311459298892 579.2647960230755 883.2356957182147 573.5616458755276L883.2356957182147 573.5616458755276L883.2356957182147 518.7016367156416Q883.2356957182147 510.82699425250007 880.3006017092256 508.8941274660926L880.3006017092256 508.8941274660926Q879.1313366162136 508.13052577269707 877.1984698298062 508.13052577269707L877.1984698298062 508.13052577269707Q875.2656030433988 508.13052577269707 874.144063056224 508.72708959566233Q872.9986605161307 509.299790865709 872.2827839285724 509.5622789478137Q871.566907341014 509.8009044769998 871.0657937297233 509.51455384197646Q870.5646801184324 509.22820320695314 870.0635665071416 508.6316393839879L870.0635665071416 508.6316393839879Q868.7988512024552 507.2953364205457 868.7988512024552 505.81585813959185Q868.7988512024552 504.36024241155656 869.8488035308741 502.7137262601724Q870.8987558592929 501.0910726617069 873.2611485982354 498.94344289903194Q875.5996787842593 496.8196756892756 878.6302230049229 495.0538467732984L878.6302230049229 495.0538467732984Q885.4310505867269 491.092662988809 892.2080156156123 491.092662988809L892.2080156156123 491.092662988809Q899.6769946791375 491.092662988809 901.1803355130099 500.58995905041604L901.1803355130099 500.58995905041604Q901.7053116772194 503.42960284773073 901.8723495476496 506.4601470683943L901.8723495476496 506.4601470683943Q914.4479149357575 496.4617373954964 928.1927454168773 492.52441616392565L928.1927454168773 492.52441616392565Q933.2277440827041 491.092662988809 937.9286670076705 491.092662988809L937.9286670076705 491.092662988809Q957.9016238005476 491.092662988809 963.1991105484791 506.8658104680107L963.1991105484791 506.8658104680107Q976.2757895478778 496.4617373954964 989.7819944998115 492.52441616392565L989.7819944998115 492.52441616392565Q994.8885808243941 491.092662988809 1000.1860675723258 491.092662988809Q1005.4596917673388 491.092662988809 1010.3753776685725 492.52441616392565Q1015.2910635698063 493.95616933904233 1018.7988588488421 497.15375143013614L1018.7988588488421 497.15375143013614Q1026.5303259944722 504.02616667069606 1026.5303259944722 518.1050728926764L1026.5303259944722 518.1050728926764L1026.5303259944722 574.3968352276789Q1026.5303259944722 581.2931130211575 1031.2312489194383 582.9634917254602L1031.2312489194383 582.9634917254602Q1032.5675518828807 583.4646053367511 1034.4049684576134 583.7986810776116Q1036.2662475852653 584.1327568184721 1037.7695884191376 584.6100078768444Q1039.2729292530103 585.063396382298 1040.1081186051615 585.6599602052632L1040.1081186051615 585.6599602052632Q1041.5398717802782 586.7337750866008 1041.5398717802782 589.167755484299L1041.5398717802782 589.167755484299Q1041.5398717802782 592.1028494932881 1040.2035688168357 593.7970907505095L1040.2035688168357 593.7970907505095Q1038.5331901125332 593.3675647979745 1034.8344944101486 593.3675647979745L1034.8344944101486 593.3675647979745L1008.0607100354673 593.3675647979745Q1000.0190297018955 593.3675647979745 997.7520871746275 590.5040584477412L997.7520871746275 590.5040584477412Q996.8214476108017 589.4302435664038 996.8214476108017 587.9984903912871L996.8214476108017 587.9984903912871Q996.8214476108017 584.4668325593327 998.1816131271624 582.79645385503L998.1816131271624 582.79645385503Q1000.1860675723258 583.4646053367511 1002.6200479700241 583.4646053367511Q1005.0540283677224 583.4646053367511 1006.3426062253274 581.8419517382855Q1007.6550466358509 580.1954355869015 1007.8220845062812 575.7570007440398L1007.8220845062812 575.7570007440398L1007.8220845062812 524.070711122329Q1007.8220845062812 509.8009044769998 999.3508782201744 508.13052577269707L999.3508782201744 508.13052577269707Q996.7498599520458 507.6294121614062 993.1704770142542 507.6294121614062Q989.6149566293813 507.6294121614062 985.4628724215429 508.5123266193948Q981.3107882137047 509.39524107738345 977.5405048525641 510.8985819112559L977.5405048525641 510.8985819112559Q970.2385636594694 513.833675920245 964.7740390411075 518.3675609747811L964.7740390411075 518.3675609747811L964.7740390411075 574.3968352276789Q964.7740390411075 581.3647006799133 969.4749619660738 582.9634917254602L969.4749619660738 582.9634917254602Q970.8112649295159 583.4646053367511 972.6725440571676 583.7986810776116Q974.5099606319006 584.1327568184721 975.9894389128546 584.6100078768444Q977.4450546408897 585.063396382298 978.2802439930412 585.6599602052632L978.2802439930412 585.6599602052632Q979.7119971681577 586.7337750866008 979.7119971681577 589.167755484299L979.7119971681577 589.167755484299Q979.7119971681577 592.1982997049626 978.4472818634714 593.7970907505095L978.4472818634714 593.7970907505095Q976.7769031591687 593.3675647979745 973.078207456784 593.3675647979745L973.078207456784 593.3675647979745L946.3282856350214 593.3675647979745Q938.262742748531 593.3675647979745 935.995800221263 590.5040584477412L935.995800221263 590.5040584477412Q935.0890232103558 589.4302435664038 935.0890232103558 587.9984903912871L935.0890232103558 587.9984903912871Q935.0890232103558 584.3952449005768 936.3537385150421 582.79645385503L936.3537385150421 582.79645385503Q938.4297806189612 583.4646053367511 940.8637610166595 583.4646053367511Q943.2977414143578 583.4646053367511 944.6101818248815 581.6987764207739Q945.8987596824865 579.9329475047966 946.0657975529167 575.255887132749L946.0657975529167 575.255887132749L946.0657975529167 524.070711122329Q946.0657975529167 509.8009044769998 937.5945912668099 508.13052577269707L937.5945912668099 508.13052577269707Q934.9935729986813 507.6294121614062 931.3187398492153 507.6294121614062Q927.6200441468305 507.6294121614062 923.2531969627248 508.6316393839879Q918.8863497786191 509.63386660656954 914.9490285470483 511.3281078637909L914.9490285470483 511.3281078637909Q907.4084618247673 514.4302397432102 901.9439372064055 519.2027503269325L901.9439372064055 519.2027503269325L901.9439372064055 574.3968352276789Q901.9439372064055 581.2931130211575 906.7164477901276 582.9634917254602L906.7164477901276 582.9634917254602Q907.981163094814 583.4646053367511 909.8424422224656 583.7986810776116Q911.6798587971987 584.1327568184721 913.1831996310711 584.6100078768444Q914.6865404649436 585.063396382298 915.5455923700137 585.6599602052632L915.5455923700137 585.6599602052632Q916.9534829922117 586.7337750866008 916.9534829922117 589.167755484299L916.9534829922117 589.167755484299Q916.9534829922117 592.1028494932881 915.6171800287694 593.7970907505095ZM1073.1577543974372 475.5104159329562L1073.1577543974372 475.5104159329562Q1070.3181106001225 475.5104159329562 1067.9318553082617 474.62750147496763Q1065.5456000164004 473.74458701697904 1063.7797711004232 472.05034575975765L1063.7797711004232 472.05034575975765Q1060.0810753980386 468.5425504807219 1060.0810753980386 462.5769122510692L1060.0810753980386 462.5769122510692Q1060.0810753980386 456.87376210352124 1064.4479225821442 452.9364408719505L1064.4479225821442 452.9364408719505Q1068.64773189582 448.9991196403797 1074.5179199137983 448.9991196403797Q1080.3881079317766 448.9991196403797 1083.8959032108123 452.5069149194155Q1087.4275610427667 456.0385727513699 1087.4275610427667 462.0757986397784L1087.4275610427667 462.0757986397784Q1087.4275610427667 467.7789487873264 1083.2277517290909 471.71627001889715L1083.2277517290909 471.71627001889715Q1079.1233926270902 475.5104159329562 1073.1577543974372 475.5104159329562ZM1094.824952447536 593.3675647979745L1068.0511680728546 593.3675647979745Q1055.1415269438862 593.3675647979745 1055.1415269438862 587.4973767799962L1055.1415269438862 587.4973767799962Q1055.1415269438862 584.4668325593327 1056.4778299073287 582.79645385503L1056.4778299073287 582.79645385503Q1058.4822843524917 583.4646053367511 1060.1765256097133 583.4646053367511L1060.1765256097133 583.4646053367511Q1067.9795804140986 583.4646053367511 1067.78867999075 573.5616458755276L1067.78867999075 573.5616458755276L1067.78867999075 517.3653337521994Q1067.78867999075 511.4951457342212 1066.1660263922845 509.1804781011159Q1064.5195102409002 506.8658104680107 1060.3435634801435 506.8658104680107L1060.3435634801435 506.8658104680107Q1057.241431600724 506.8658104680107 1054.712000991351 507.6294121614062L1054.712000991351 507.6294121614062Q1053.2086601574788 507.7964500318365 1052.5405086757578 505.2908819753824L1052.5405086757578 505.2908819753824Q1051.9439448527924 503.0239394481144 1053.2086601574788 501.3058356379744Q1054.4733754621652 499.58773182783443 1057.0982562832123 497.67872759434556Q1059.746999657178 495.7935859137753 1062.944581748272 494.3856952915773L1062.944581748272 494.3856952915773Q1069.8169969888318 491.092662988809 1074.4224697021236 491.092662988809Q1079.0518049683342 491.092662988809 1081.2710223897652 492.4528285051698Q1083.4902398111958 493.789131468612 1084.6595049042076 496.05607399588007L1084.6595049042076 496.05607399588007Q1086.4969214789407 499.7547696982647 1086.4969214789407 507.96348790226676L1086.4969214789407 507.96348790226676L1086.4969214789407 574.9933990506443Q1086.7594095610452 581.627188762018 1091.2932946155815 583.0589419371347L1091.2932946155815 583.0589419371347Q1092.558009920268 583.4646053367511 1094.3954264950007 583.7986810776116Q1096.232843069734 584.1327568184721 1097.7123213506875 584.6100078768444Q1099.1679370787228 585.063396382298 1100.0031264308745 585.6599602052632L1100.0031264308745 585.6599602052632Q1101.4348796059912 586.7337750866008 1101.4348796059912 589.167755484299L1101.4348796059912 589.167755484299Q1101.4348796059912 592.1982997049626 1100.194026854223 593.7970907505095L1100.194026854223 593.7970907505095Q1098.4281979382463 593.3675647979745 1094.824952447536 593.3675647979745L1094.824952447536 593.3675647979745ZM1156.5573768479817 593.7970907505095L1156.5573768479817 593.7970907505095Q1154.8869981436792 593.3675647979745 1151.1883024412941 593.3675647979745L1151.1883024412941 593.3675647979745L1126.0133091121602 593.3675647979745Q1117.9716287785882 593.3675647979745 1115.7046862513203 590.5040584477412L1115.7046862513203 590.5040584477412Q1114.7740466874943 589.4302435664038 1114.7740466874943 587.9984903912871L1114.7740466874943 587.9984903912871Q1114.7740466874943 584.4668325593327 1116.1103496509368 582.79645385503L1116.1103496509368 582.79645385503Q1118.1386666490184 583.4646053367511 1120.7396849171469 583.4646053367511Q1123.3407031852757 583.4646053367511 1124.6054184899622 581.3647006799133Q1125.84627124173 579.2647960230755 1125.774683582974 573.5616458755276L1125.774683582974 573.5616458755276L1125.774683582974 469.61636536205935Q1125.774683582974 463.8416275557556 1124.6054184899622 462.17124885145284L1124.6054184899622 462.17124885145284Q1122.839589573985 459.47478037164984 1118.3772921782047 459.47478037164984L1118.3772921782047 459.47478037164984Q1117.0409892147622 459.47478037164984 1115.656961145483 459.76113100667317Q1114.2729330762036 460.0713441946151 1113.5570564886452 459.6895433479173Q1112.841179901087 459.30774250121954 1112.4355165014704 458.6395910194984L1112.4355165014704 458.6395910194984Q1111.3378390672146 456.9692123151957 1112.650279477738 455.25110850505575Q1113.938857335343 453.50914214199713 1116.3728377330413 451.6001379085083Q1118.8068181307394 449.66727112210083 1121.7419121397288 448.2355179469842L1121.7419121397288 448.2355179469842Q1128.0416261102419 444.9663481971345 1132.5993737176964 444.9663481971345Q1137.1809838780696 444.9663481971345 1139.4002012995006 446.3026511605767Q1141.6194187209317 447.63895412401894 1142.7170961551874 449.905896651287L1142.7170961551874 449.905896651287Q1144.5545127299206 453.6045923536716 1144.5545127299206 461.8133105576737L1144.5545127299206 461.8133105576737L1144.5545127299206 574.3968352276789Q1144.5545127299206 581.3647006799133 1148.754322043596 582.9634917254602L1148.754322043596 582.9634917254602Q1149.9235871366081 583.4646053367511 1151.570103287992 583.7986810776116Q1153.1927568864576 584.1327568184721 1154.5529224028182 584.6100078768444Q1155.8892253662607 585.063396382298 1156.652827059656 585.6599602052632L1156.652827059656 585.6599602052632Q1157.8936798114241 586.7337750866008 1157.8936798114241 589.167755484299L1157.8936798114241 589.167755484299Q1157.8936798114241 592.1028494932881 1156.5573768479817 593.7970907505095ZM1192.040993037956 491.092662988809L1192.040993037956 491.092662988809Q1205.1415345902733 491.092662988809 1205.1415345902733 499.1582058752995L1205.1415345902733 499.1582058752995Q1205.1415345902733 509.299790865709 1184.739051844861 527.1728430017484L1184.739051844861 527.1728430017484Q1176.8644093817193 534.1407084539827 1168.8943167069037 539.0802569081352L1168.8943167069037 539.0802569081352Q1174.2633911135908 544.0436679152062 1179.8710910494642 551.9183103783477L1179.8710910494642 551.9183103783477L1188.7002356293506 564.3507004489438Q1199.7724601835857 580.1954355869015 1205.380160119459 580.1954355869015L1205.380160119459 580.1954355869015Q1209.985632832751 580.1954355869015 1211.465111113705 579.2647960230755Q1212.944589394659 578.3580190121684 1213.61274087638 578.2625688004939Q1214.280892358101 578.1909811417381 1215.3547072394385 578.8591326234592Q1216.4523846736947 579.5272841051802 1216.4523846736947 581.1260751507272Q1216.4523846736947 582.7248661962741 1215.1638068160896 585.1111214881352Q1213.8513664055658 587.4973767799962 1211.5128362195424 589.6688690955898L1211.5128362195424 589.6688690955898Q1205.8096860719943 594.9663558435215 1199.1758963606203 594.9663558435215Q1192.5421066492468 594.9663558435215 1188.0082215947104 591.8164988582648Q1183.4981990930933 588.6666418730082 1179.5370153086037 583.6793683130186Q1175.5996940770328 578.692094753029 1172.0680362450785 572.559418652946L1172.0680362450785 572.559418652946L1165.124033345763 560.6520047465592Q1156.652827059656 546.0481223603695 1150.5917386183291 541.6812751762637L1150.5917386183291 541.6812751762637Q1147.0839433392935 539.2472947785654 1148.2532084323052 538.5791432968443L1148.2532084323052 538.5791432968443L1150.6871888300034 537.2428403334021L1164.1933937819372 527.6023689542834Q1172.8316379384742 521.1356171133399 1176.100807688324 517.4369214109552L1176.100807688324 517.4369214109552Q1182.472109317593 510.3258806412092 1182.472109317593 505.52950750456847L1182.472109317593 505.52950750456847Q1182.472109317593 502.188750095963 1175.7667319474635 501.66377393175355L1175.7667319474635 501.66377393175355Q1174.9315425953118 500.32747096831133 1174.9315425953118 498.82413013443886Q1174.9315425953118 497.3207893005664 1176.5541961937774 495.84131101961253Q1178.2007123451617 494.3856952915773 1180.7301429545346 493.35960551607707L1180.7301429545346 493.35960551607707Q1186.0992173612217 491.092662988809 1192.040993037956 491.092662988809ZM1224.7565530893712 547.0503495829512L1224.7565530893712 547.0503495829512Q1224.7565530893712 536.8133143808672 1226.7848700874529 528.6761838356208Q1228.7893245326163 520.5390532903746 1232.3209823645707 514.3347895315359Q1235.8287776436064 508.13052577269707 1240.6251507802472 503.7398160356727Q1245.3976613639693 499.3252437457297 1250.862185982331 496.5571876071709L1250.862185982331 496.5571876071709Q1261.5048845840315 491.092662988809 1274.2474878425696 491.092662988809L1274.2474878425696 491.092662988809Q1290.6171991447368 491.092662988809 1302.0234994398324 503.0239394481144L1302.0234994398324 503.0239394481144Q1314.694515039615 516.100618447513 1314.694515039615 537.5769160742627L1314.694515039615 537.5769160742627Q1314.694515039615 565.7585910711418 1299.350893512948 581.4601508915878L1299.350893512948 581.4601508915878Q1286.011726431445 594.9663558435215 1267.3750726020098 594.9663558435215L1267.3750726020098 594.9663558435215Q1247.9270919733422 594.9663558435215 1236.1628533844669 581.2931130211575L1236.1628533844669 581.2931130211575Q1224.7565530893712 568.1209838100843 1224.7565530893712 547.0503495829512ZM1272.3384836090809 581.2931130211575L1272.3384836090809 581.2931130211575Q1277.9461835449542 581.2931130211575 1282.3846183878159 578.6443696471916Q1286.8469157835962 575.9956262732259 1289.9490476630158 571.390153559934L1289.9490476630158 571.390153559934Q1296.1533114218541 561.8212698395712 1296.1533114218541 546.5492359716602L1296.1533114218541 546.5492359716602Q1296.1533114218541 529.773861269877 1289.6149719221548 518.0334852339205L1289.6149719221548 518.0334852339205Q1282.2175805173856 504.52728028198686 1268.3772998245918 504.52728028198686L1268.3772998245918 504.52728028198686Q1257.2334876116001 504.52728028198686 1250.5281102414706 513.0939367797681L1250.5281102414706 513.0939367797681Q1243.3932069188063 522.1378443359215 1243.3932069188063 538.412105426414L1243.3932069188063 538.412105426414Q1243.3932069188063 558.8145881718262 1252.3655268162038 570.6265518665385L1252.3655268162038 570.6265518665385Q1260.4072071497753 581.2931130211575 1272.3384836090809 581.2931130211575ZM1350.5122069704494 448.6650438995192L1350.5122069704494 448.6650438995192Q1353.614338849869 448.40255581741445 1357.8141481635444 448.40255581741445Q1362.0139574772197 448.40255581741445 1362.0139574772197 449.7388587808567L1362.0139574772197 449.7388587808567Q1361.584431524685 455.0363455287883 1361.0833179133942 460.23838206504536L1361.0833179133942 460.23838206504536Q1358.4107119865098 487.7519055802035 1357.9811860339746 492.95394211646067L1357.9811860339746 492.95394211646067L1357.0505464701487 503.09552710687024Q1357.0505464701487 504.8613560228474 1348.7463780544722 504.8613560228474L1348.7463780544722 504.8613560228474Q1343.0432279069246 504.8613560228474 1342.8761900364943 502.8569015776841L1342.8761900364943 502.8569015776841Q1342.637564507308 500.08884543912524 1342.2080385547729 495.88903612544976L1342.2080385547729 495.88903612544976L1340.2751717683655 477.08534442558454Q1339.7024704983191 472.05034575975765 1339.272944545784 467.37328538771L1339.272944545784 467.37328538771L1338.5093428523883 458.544140807824Q1338.1752671115278 454.5352319174974 1338.1036794527722 451.93421364936887L1338.1036794527722 451.93421364936887Q1338.1036794527722 449.66727112210083 1350.5122069704494 448.6650438995192ZM1443.6238884588684 520.8731290312352L1443.6238884588684 520.8731290312352Q1443.6238884588684 507.96348790226676 1432.8857396454937 503.7636785885913L1432.8857396454937 503.7636785885913Q1429.4495320252136 502.4273756251491 1425.4644856878058 502.4273756251491Q1421.4794393503976 502.4273756251491 1418.0909568359552 503.09552710687024Q1414.7024743215125 503.7636785885913 1412.1014560533836 505.1954317637079L1412.1014560533836 505.1954317637079Q1406.2312680354057 508.3930138548018 1406.2312680354057 514.3347895315359L1406.2312680354057 514.3347895315359Q1406.2312680354057 520.0379396790838 1411.0753662778834 524.2377489927593L1411.0753662778834 524.2377489927593Q1416.444440684571 528.6761838356208 1431.0483230707605 535.1906607824017Q1445.6522054569505 541.6812751762637 1453.574573025929 549.3650172160563Q1461.4969405949078 557.0487592558491 1461.4969405949078 567.0233063758283L1461.4969405949078 567.0233063758283Q1461.4969405949078 578.2625688004939 1452.285995168324 585.9940359461237L1452.285995168324 585.9940359461237Q1441.452396143275 594.9663558435215 1422.338491255468 594.9663558435215L1422.338491255468 594.9663558435215Q1398.9293268423107 594.9663558435215 1389.9331443919946 584.9679461706236L1389.9331443919946 584.9679461706236Q1386.831012512575 581.4601508915878 1386.831012512575 575.9956262732259L1386.831012512575 575.9956262732259Q1386.831012512575 562.8234970621528 1393.2977643535187 560.6520047465592L1393.2977643535187 560.6520047465592Q1394.8965553990656 560.1508911352685 1396.3283085741823 560.1508911352685L1396.3283085741823 560.1508911352685Q1400.2656298057527 560.1508911352685 1400.5997055466137 562.5848715329666L1400.5997055466137 562.5848715329666Q1402.4371221213464 583.5600555484256 1424.0804576185265 583.5600555484256L1424.0804576185265 583.5600555484256Q1437.085548959169 583.5600555484256 1441.452396143275 576.2581143553306L1441.452396143275 576.2581143553306Q1442.8841493183913 573.8957216163882 1442.8841493183913 570.5549642077826Q1442.8841493183913 567.1903442462585 1440.7365195557168 564.4222881076997Q1438.6127523459604 561.6542319691409 1434.8186064319011 559.2679766772799Q1431.0483230707605 556.8817213854187 1425.8462865345036 554.6147788581507L1425.8462865345036 554.6147788581507L1414.7024743215125 549.5797801923238Q1389.0263673810873 537.8394041563674 1389.0263673810873 518.3675609747811L1389.0263673810873 518.3675609747811Q1389.0263673810873 505.7919955866732 1400.1701795940785 498.22756631147365L1400.1701795940785 498.22756631147365Q1410.741290537023 491.092662988809 1427.4450775800506 491.092662988809L1427.4450775800506 491.092662988809Q1450.090640299812 491.092662988809 1455.62675257693 500.9240347912766L1455.62675257693 500.9240347912766Q1457.0585057520461 503.42960284773073 1457.0585057520461 506.4601470683943Q1457.0585057520461 509.4668287361393 1456.7244300111856 511.8769465809189Q1456.3903542703251 514.26320187278 1455.8892406590344 516.1960686591874L1455.8892406590344 516.1960686591874Q1455.0540513068831 519.8709018086536 1453.956373872627 521.3981051954446L1453.956373872627 521.3981051954446Q1451.7848815570333 522.973033688073 1447.7043850079508 522.973033688073Q1443.6238884588684 522.973033688073 1443.6238884588684 520.8731290312352ZM1600.9258372983504 594.0357162796956L1600.9258372983504 594.0357162796956Q1598.992970511943 593.3675647979745 1592.621668882674 593.3675647979745L1592.621668882674 593.3675647979745L1549.5020357587441 593.3675647979745Q1545.1351885746385 593.3675647979745 1542.53417030651 591.9835367286951Q1539.9331520383812 590.5995086594156 1539.9331520383812 586.900812957031L1539.9331520383812 586.900812957031Q1539.9331520383812 584.2282070301466 1541.1978673430676 582.6294159845996L1541.1978673430676 582.6294159845996Q1544.3954494341615 583.4646053367511 1547.3305434431509 583.4646053367511Q1550.2656374521398 583.4646053367511 1551.9360161564423 582.8441789608672Q1553.6063948607452 582.1998900320647 1554.8711101654317 580.6249615394364L1554.8711101654317 580.6249615394364Q1557.4005407748045 577.2603415779123 1557.4005407748045 569.4572867735266L1557.4005407748045 569.4572867735266L1557.4005407748045 485.2224749708308Q1557.4005407748045 477.4194201664451 1548.1657327953021 475.5104159329562L1548.1657327953021 475.5104159329562Q1542.3671324360794 474.3172882870257 1540.6251660730209 472.8139474531532Q1538.8593371570437 471.31060661928075 1538.8593371570437 469.54477770330357L1538.8593371570437 469.54477770330357Q1538.8593371570437 465.6790441304886 1540.1956401204861 464.3427411670464L1540.1956401204861 464.3427411670464Q1541.6989809543584 464.77226711958144 1542.9636962590448 464.77226711958144L1542.9636962590448 464.77226711958144L1563.7718424040736 464.77226711958144L1593.6238961052554 463.9132152145114Q1632.9016582092886 463.9132152145114 1643.3057312818028 485.31792518250523L1643.3057312818028 485.31792518250523Q1647.0760146429434 493.0255297752165 1647.0760146429434 500.75699692084635Q1647.0760146429434 508.4646015135576 1645.9783372086872 513.9291261319195Q1644.880659774431 519.3697881973627 1642.255778953384 524.5240996277826Q1639.6070355794182 529.7022736111212 1635.2401883953125 534.2600212185757Q1630.873341211207 538.841631378949 1624.3350017115072 542.2778389992291L1624.3350017115072 542.2778389992291Q1610.1606452778524 549.6513678510796 1588.0877838281376 549.6513678510796L1588.0877838281376 549.6513678510796L1584.9140642899624 549.6513678510796Q1582.5516715510203 549.6513678510796 1582.5516715510203 546.6446861833347L1582.5516715510203 546.6446861833347Q1582.5516715510203 540.0108964719609 1586.1787795946489 539.1757071198097L1586.1787795946489 539.1757071198097Q1617.7012120001336 539.8438586015307 1624.3350017115072 520.3720154199443L1624.3350017115072 520.3720154199443Q1626.3633187095893 514.26320187278 1626.3633187095893 507.2953364205457Q1626.3633187095893 500.32747096831133 1624.836115322798 494.50500805617037Q1623.3327744889257 488.65868259111073 1619.3954532573553 484.1486600894933L1619.3954532573553 484.1486600894933Q1610.6617588891431 474.24570062826984 1590.5217642258358 474.24570062826984L1590.5217642258358 474.24570062826984Q1582.3846336805896 474.24570062826984 1579.7120277537051 477.75349590730565L1579.7120277537051 477.75349590730565Q1577.1825971443327 480.87949033964367 1577.1825971443327 490.35292384833207L1577.1825971443327 490.35292384833207L1577.1825971443327 574.1582096984929Q1577.612123096868 580.6965491981922 1587.5866702168469 582.1283023733089L1587.5866702168469 582.1283023733089Q1596.5589901142444 583.3930176779952 1598.7543449827567 584.4668325593327Q1600.9258372983504 585.5645099935888 1601.5939887800714 586.6144623220076Q1602.286002814711 587.6644146504266 1602.286002814711 589.167755484299L1602.286002814711 589.167755484299Q1602.286002814711 592.3653375753928 1600.9258372983504 594.0357162796956ZM1659.484542160621 547.0503495829512L1659.484542160621 547.0503495829512Q1659.484542160621 536.8133143808672 1661.5128591587031 528.6761838356208Q1663.5173136038661 520.5390532903746 1667.0489714358205 514.3347895315359Q1670.5567667148562 508.13052577269707 1675.353139851497 503.7398160356727Q1680.125650435219 499.3252437457297 1685.5901750535813 496.5571876071709L1685.5901750535813 496.5571876071709Q1696.2328736552813 491.092662988809 1708.9754769138199 491.092662988809L1708.9754769138199 491.092662988809Q1725.3451882159866 491.092662988809 1736.7514885110822 503.0239394481144L1736.7514885110822 503.0239394481144Q1749.4225041108648 516.100618447513 1749.4225041108648 537.5769160742627L1749.4225041108648 537.5769160742627Q1749.4225041108648 565.7585910711418 1734.0788825841978 581.4601508915878L1734.0788825841978 581.4601508915878Q1720.7397155026947 594.9663558435215 1702.1030616732596 594.9663558435215L1702.1030616732596 594.9663558435215Q1682.655081044592 594.9663558435215 1670.8908424557167 581.2931130211575L1670.8908424557167 581.2931130211575Q1659.484542160621 568.1209838100843 1659.484542160621 547.0503495829512ZM1707.0664726803307 581.2931130211575L1707.0664726803307 581.2931130211575Q1712.674172616204 581.2931130211575 1717.1126074590657 578.6443696471916Q1721.574904854846 575.9956262732259 1724.6770367342651 571.390153559934L1724.6770367342651 571.390153559934Q1730.881300493104 561.8212698395712 1730.881300493104 546.5492359716602L1730.881300493104 546.5492359716602Q1730.881300493104 529.773861269877 1724.342960993405 518.0334852339205L1724.342960993405 518.0334852339205Q1716.9455695886354 504.52728028198686 1703.105288895841 504.52728028198686L1703.105288895841 504.52728028198686Q1691.96147668285 504.52728028198686 1685.2322367598017 513.0939367797681L1685.2322367598017 513.0939367797681Q1678.121195990056 522.1378443359215 1678.121195990056 538.412105426414L1678.121195990056 538.412105426414Q1678.121195990056 558.8145881718262 1687.0935158874536 570.6265518665385L1687.0935158874536 570.6265518665385Q1695.1351962210256 581.2931130211575 1707.0664726803307 581.2931130211575ZM1813.1832455093927 593.7970907505095L1813.1832455093927 593.7970907505095Q1811.4174165934155 593.3675647979745 1807.8141711027051 593.3675647979745L1807.8141711027051 593.3675647979745L1779.3700080237213 593.3675647979745Q1771.3283276901493 593.3675647979745 1769.0613851628814 590.5040584477412L1769.0613851628814 590.5040584477412Q1768.1307455990554 589.4302435664038 1768.1307455990554 587.9984903912871L1768.1307455990554 587.9984903912871Q1768.1307455990554 584.4668325593327 1769.4670485624974 582.79645385503L1769.4670485624974 582.79645385503Q1771.4953655605796 583.4646053367511 1773.2134693707194 583.4646053367511Q1774.9315731808597 583.4646053367511 1776.1008382738714 583.0112168312975Q1777.2701033668836 582.5339657729252 1777.9382548486046 581.4601508915878L1777.9382548486046 581.4601508915878Q1779.1075199416164 579.4318338935059 1779.1075199416164 573.5616458755276L1779.1075199416164 573.5616458755276L1779.1075199416164 518.7016367156416Q1779.1075199416164 510.82699425250007 1776.1724259326274 508.8941274660926L1776.1724259326274 508.8941274660926Q1775.0031608396152 508.13052577269707 1773.0702940532078 508.13052577269707L1773.0702940532078 508.13052577269707Q1771.1374272668004 508.13052577269707 1770.015887279626 508.72708959566233Q1768.8943472924511 509.299790865709 1768.1784707048928 509.5622789478137Q1767.4625941173344 509.8009044769998 1766.9614805060437 509.51455384197646Q1766.460366894753 509.22820320695314 1765.9592532834617 508.6316393839879L1765.9592532834617 508.6316393839879Q1764.6945379787758 507.1282985501154 1764.6945379787758 505.744270480836Q1764.6945379787758 504.36024241155656 1765.7444903071946 502.7137262601724Q1766.794442635613 501.0910726617069 1769.1329728216374 498.94344289903194Q1771.4953655605796 496.8196756892756 1774.5020472283245 495.0538467732984L1774.5020472283245 495.0538467732984Q1781.3028748101287 491.092662988809 1788.103702391933 491.092662988809L1788.103702391933 491.092662988809Q1795.811306984644 491.092662988809 1797.2430601597607 501.16266032046275L1797.2430601597607 501.16266032046275Q1797.6487235593768 504.09775432945185 1797.7441737710515 507.2953364205457L1797.7441737710515 507.2953364205457Q1809.9856634182988 496.4617373954964 1822.9907547589414 492.4528285051698L1822.9907547589414 492.4528285051698Q1827.3576019430475 491.092662988809 1830.9131223279205 491.092662988809Q1834.4925052657118 491.092662988809 1836.7833103458984 492.1187527643093Q1839.0979779790036 493.1209799868909 1840.434280942446 494.8868089028681L1840.434280942446 494.8868089028681Q1842.963711551819 498.32301652314806 1842.963711551819 503.69209092983544Q1842.963711551819 509.0611653365229 1842.4625979405278 512.2348848746981Q1841.961484329237 515.432466965792 1841.1978826358418 517.8664473634902L1841.1978826358418 517.8664473634902Q1839.694541801969 522.8059958176426 1838.3582388385266 524.1661613340034L1838.3582388385266 524.1661613340034Q1835.9958460995845 526.6001417317018 1832.0585248680136 526.6001417317018L1832.0585248680136 526.6001417317018Q1828.0257534247685 526.6001417317018 1828.0257534247685 524.2377489927593L1828.0257534247685 524.2377489927593Q1828.0257534247685 515.2654290953617 1827.2621517313728 512.735998485989L1827.2621517313728 512.735998485989Q1825.8542611091748 508.13052577269707 1821.8930773246857 508.13052577269707Q1817.9557560931148 508.13052577269707 1814.7820365549396 509.01344023068566Q1811.5844544638458 509.89635468867425 1808.5539102431821 511.3996955225467L1808.5539102431821 511.3996955225467Q1802.4450966960176 514.4302397432102 1797.8157614298075 519.2027503269325L1797.8157614298075 519.2027503269325L1797.8157614298075 574.9933990506443Q1798.078249511912 581.627188762018 1803.6143617890298 583.0589419371347L1803.6143617890298 583.0589419371347Q1805.2131528345767 583.4646053367511 1807.2176072797397 583.7986810776116Q1809.2459242778218 584.1327568184721 1810.7015400058572 584.6100078768444Q1812.1810182868112 585.063396382298 1813.0162076389624 585.6599602052632L1813.0162076389624 585.6599602052632Q1814.4479608140791 586.7337750866008 1814.4479608140791 589.167755484299L1814.4479608140791 589.167755484299Q1814.4479608140791 592.1982997049626 1813.1832455093927 593.7970907505095ZM1883.9834400189106 509.22820320695314L1883.887989807236 536.145162899146L1883.8164021484804 558.2180243488609Q1883.8164021484804 572.0583050416551 1885.248155323597 574.8740862860512Q1886.6799084987133 577.6898675304473 1888.5889127322025 578.2148436946567Q1890.52177951861 578.7636824117848 1893.5523237392736 578.7636824117848Q1896.5590054070185 578.7636824117848 1899.040710910554 578.3102939063311Q1901.5224164140895 577.8569054008775 1903.6939087296828 577.093303707482Q1905.8892635981952 576.3297020140865 1907.8937180433586 575.4229250031792L1907.8937180433586 575.4229250031792L1911.9980771453593 573.657096087202Q1913.429830320476 573.1559824759112 1915.1956592364531 576.5921900961912L1915.1956592364531 576.5921900961912Q1915.696772847744 577.522829660017 1915.696772847744 578.7398198588661Q1915.696772847744 579.9329475047966 1914.6945456251624 581.8658142912042Q1913.692318402581 583.7986810776116 1910.7810869465102 586.2803865811471Q1907.8937180433586 588.7620920846826 1904.0279844705433 590.6710963181715L1904.0279844705433 590.6710963181715Q1895.6522283961112 594.9663558435215 1888.9707135789 594.9663558435215Q1882.3130613146077 594.9663558435215 1878.1132520009323 594.2027541501259Q1873.913442687257 593.463015009649 1870.9783486782676 591.1960724823809L1870.9783486782676 591.1960724823809Q1864.941122789859 586.4951495574146 1864.941122789859 573.9911718280626L1864.941122789859 573.9911718280626L1864.941122789859 507.96348790226676L1856.6369543741826 507.96348790226676Q1854.0359361060541 507.96348790226676 1852.866671013042 506.29310919796404L1852.866671013042 506.29310919796404Q1850.8383540149603 503.69209092983544 1850.8383540149603 501.92626201385826L1850.8383540149603 501.92626201385826Q1850.8383540149603 498.99116800486917 1852.270107190077 498.6570922640086L1852.270107190077 498.6570922640086Q1865.60927427158 496.39014973674057 1871.1453865486978 478.8511733415617L1871.1453865486978 478.8511733415617Q1872.7441775942448 473.57754914654873 1873.6748171580707 466.3471956122097L1873.6748171580707 466.3471956122097Q1877.6837260483971 465.6790441304886 1879.735905599398 465.6790441304886Q1881.811947703317 465.6790441304886 1883.3152885371896 467.7789487873264Q1884.818629371062 469.87885344416406 1884.7709042652245 472.64690958272297Q1884.7470417123063 475.41496572128176 1884.6515915006316 477.84894611898005Q1884.5800038418756 480.28292651667834 1884.4845536302014 483.12257031399304L1884.4845536302014 483.12257031399304L1884.150477889341 494.8868089028681L1913.1673422383715 494.8868089028681Q1914.2650196726277 496.8196756892756 1914.2650196726277 498.99116800486917L1914.2650196726277 498.99116800486917L1914.2650196726277 501.5921862729977Q1914.2650196726277 505.1238441049521 1910.494736311487 507.34306152638294Q1906.7244529503464 509.5622789478137 1902.1428427899732 509.5622789478137Q1897.5850951825187 509.5622789478137 1895.604503290274 509.4429661832206Q1893.6239113980291 509.299790865709 1891.7864948232964 509.13275299527874L1891.7864948232964 509.13275299527874L1888.0877991209118 508.6316393839879Q1886.1549323345043 508.4646015135576 1883.9834400189106 508.2975636431273L1883.9834400189106 508.2975636431273L1883.9834400189106 509.22820320695314ZM1973.324838146189 593.3675647979745L1942.5421448811812 593.3675647979745Q1929.7040914109689 593.3675647979745 1929.7040914109689 587.4973767799962L1929.7040914109689 587.4973767799962Q1929.7040914109689 584.3952449005768 1930.9688067156549 582.79645385503L1930.9688067156549 582.79645385503Q1932.9732611608183 583.4646053367511 1934.7390900767955 583.4646053367511L1934.7390900767955 583.4646053367511Q1942.4466946695065 583.4646053367511 1942.2796567990763 573.5616458755276L1942.2796567990763 573.5616458755276L1942.2796567990763 507.19988620887125L1940.704728306448 507.19988620887125Q1931.6369581973763 507.19988620887125 1928.9404897175732 507.46237429097596L1928.9404897175732 507.46237429097596Q1927.5325990953752 504.1932045411263 1927.5325990953752 501.329698190893Q1927.5325990953752 498.49005439357836 1929.7040914109689 496.6765003717639Q1931.8755837265621 494.8868089028681 1935.335653899761 494.8868089028681L1935.335653899761 494.8868089028681L1942.2796567990763 494.8868089028681L1942.2796567990763 491.85626468220454Q1942.2796567990763 460.4770075942315 1963.9229922962563 449.23774516956587L1963.9229922962563 449.23774516956587Q1972.1555730531772 444.9663481971345 1981.223343162249 444.9663481971345Q1990.2672507184025 444.9663481971345 1994.300022161648 449.07070729913556Q1998.3327936048927 453.17506640113663 1998.3327936048927 459.97589398294065L1998.3327936048927 459.97589398294065Q1998.3327936048927 467.6119109168961 1992.9637191982056 471.8117202305716L1992.9637191982056 471.8117202305716Q1991.3649281526586 472.9093976648277 1988.1673460615648 472.9093976648277Q1984.9936265233896 472.9093976648277 1984.9936265233896 471.31060661928075L1984.9936265233896 471.31060661928075Q1984.9936265233896 458.97366676035904 1975.7588185438876 458.97366676035904L1975.7588185438876 458.97366676035904Q1969.6261424438044 458.97366676035904 1966.6194607760594 461.8133105576737L1966.6194607760594 461.8133105576737Q1960.8208604168367 467.4448730464658 1960.8208604168367 478.8511733415617L1960.8208604168367 478.8511733415617Q1960.8208604168367 480.6170022575389 1960.9878982872674 482.62145670270223L1960.9878982872674 482.62145670270223L1960.9878982872674 494.8868089028681L1987.594644791518 494.8868089028681Q1988.6923222257742 496.8196756892756 1988.6923222257742 499.8263573570205Q1988.6923222257742 502.8569015776841 1988.0480332969719 504.2647921998821Q1987.4276069210882 505.6965453749988 1985.661778005111 506.8658104680107L1985.661778005111 506.8658104680107Q1981.7960444322957 509.5622789478137 1975.6395057792943 509.5622789478137Q1969.4591045733741 509.5622789478137 1960.9878982872674 508.56005172523203L1960.9878982872674 508.56005172523203L1960.9878982872674 575.9240386144701Q1960.9878982872674 582.3669279024949 1969.2204790441879 583.2975674663207L1969.2204790441879 583.2975674663207Q1976.4269700256082 584.0611691597163 1977.9541734123995 585.1349840410538L1977.9541734123995 585.1349840410538Q1980.0302155163185 586.7337750866008 1980.0302155163185 589.167755484299L1980.0302155163185 589.167755484299Q1980.0302155163185 592.1028494932881 1978.6939125528766 593.7970907505095L1978.6939125528766 593.7970907505095Q1977.0235338485736 593.3675647979745 1973.324838146189 593.3675647979745L1973.324838146189 593.3675647979745ZM2000.9338118730216 547.0503495829512L2000.9338118730216 547.0503495829512Q2000.9338118730216 536.8133143808672 2002.938266318185 528.6761838356208Q2004.9665833162671 520.5390532903746 2008.4743785953024 514.3347895315359Q2012.0060364272567 508.13052577269707 2016.7785470109789 503.7398160356727Q2021.5749201476197 499.3252437457297 2027.0155822130632 496.5571876071709L2027.0155822130632 496.5571876071709Q2037.6821433676819 491.092662988809 2050.42474662622 491.092662988809L2050.42474662622 491.092662988809Q2066.794457928387 491.092662988809 2078.200758223483 503.0239394481144L2078.200758223483 503.0239394481144Q2090.8717738232654 516.100618447513 2090.8717738232654 537.5769160742627L2090.8717738232654 537.5769160742627Q2090.8717738232654 565.7585910711418 2075.50428974368 581.4601508915878L2075.50428974368 581.4601508915878Q2062.1651226621766 594.9663558435215 2043.5523313856602 594.9663558435215L2043.5523313856602 594.9663558435215Q2024.0804882040743 594.9663558435215 2012.3401121681172 581.2931130211575L2012.3401121681172 581.2931130211575Q2000.9338118730216 568.1209838100843 2000.9338118730216 547.0503495829512ZM2048.491879839813 581.2931130211575L2048.491879839813 581.2931130211575Q2054.1234423286046 581.2931130211575 2058.561877171466 578.6443696471916Q2063.000312014328 575.9956262732259 2066.1024438937475 571.390153559934L2066.1024438937475 571.390153559934Q2072.330570205505 561.8212698395712 2072.330570205505 546.5492359716602L2072.330570205505 546.5492359716602Q2072.330570205505 529.773861269877 2065.7683681528865 518.0334852339205L2065.7683681528865 518.0334852339205Q2058.3948393010364 504.52728028198686 2044.5545586082417 504.52728028198686L2044.5545586082417 504.52728028198686Q2033.3868838423323 504.52728028198686 2026.6815064722023 513.0939367797681L2026.6815064722023 513.0939367797681Q2019.546603149538 522.1378443359215 2019.546603149538 538.412105426414L2019.546603149538 538.412105426414Q2019.546603149538 558.8145881718262 2028.5189230469355 570.6265518665385L2028.5189230469355 570.6265518665385Q2036.5844659334261 581.2931130211575 2048.491879839813 581.2931130211575ZM2147.9987255104193 593.3675647979745L2121.224941135738 593.3675647979745Q2108.3868876655256 593.3675647979745 2108.3868876655256 587.4973767799962L2108.3868876655256 587.4973767799962Q2108.3868876655256 584.3952449005768 2109.651602970212 582.79645385503L2109.651602970212 582.79645385503Q2111.656057415375 583.4646053367511 2113.421886331352 583.4646053367511L2113.421886331352 583.4646053367511Q2120.723827524447 583.4646053367511 2120.986315606552 574.6593233097836L2120.986315606552 574.6593233097836L2120.986315606552 469.61636536205935Q2120.986315606552 463.74617734408116 2119.7931879606217 462.17124885145284L2119.7931879606217 462.17124885145284Q2117.8841837271325 459.47478037164984 2113.588924201783 459.47478037164984L2113.588924201783 459.47478037164984Q2111.656057415375 459.47478037164984 2109.866365946479 459.8565812183476Q2108.052811924665 460.23838206504536 2107.3369353371068 459.8565812183476Q2106.6210587495484 459.47478037164984 2106.215395349932 458.80662888992873L2106.215395349932 458.80662888992873Q2104.5450166456294 456.0385727513699 2110.4152046636073 451.76717577893857L2110.4152046636073 451.76717577893857Q2119.626150090191 444.9663481971345 2128.6223325405076 444.9663481971345L2128.6223325405076 444.9663481971345Q2138.167353707952 444.9663481971345 2139.3604813538823 455.27497105797437L2139.3604813538823 455.27497105797437Q2139.694557094743 458.3771029373937 2139.694557094743 461.8133105576737L2139.694557094743 461.8133105576737L2139.694557094743 574.9933990506443Q2139.933182623929 581.5317385503436 2144.467067678465 583.0589419371347L2144.467067678465 583.0589419371347Q2145.8033706419073 583.4646053367511 2147.616924663722 583.7986810776116Q2149.4066161326173 584.1327568184721 2150.9338195194086 584.6100078768444Q2152.437160353281 585.063396382298 2153.2723497054326 585.6599602052632L2153.2723497054326 585.6599602052632Q2154.7041028805493 586.7337750866008 2154.7041028805493 589.167755484299L2154.7041028805493 589.167755484299Q2154.7041028805493 592.1028494932881 2153.367799917107 593.7970907505095L2153.367799917107 593.7970907505095Q2151.673558659885 593.3675647979745 2147.9987255104193 593.3675647979745L2147.9987255104193 593.3675647979745ZM2187.1571748498595 475.5104159329562L2187.1571748498595 475.5104159329562Q2184.317531052545 475.5104159329562 2181.9312757606835 474.62750147496763Q2179.5450204688227 473.74458701697904 2177.7791915528455 472.05034575975765L2177.7791915528455 472.05034575975765Q2174.080495850461 468.5425504807219 2174.080495850461 462.5769122510692L2174.080495850461 462.5769122510692Q2174.080495850461 456.87376210352124 2178.4473430345665 452.9364408719505L2178.4473430345665 452.9364408719505Q2182.647152348242 448.9991196403797 2188.51734036622 448.9991196403797Q2194.3875283841985 448.9991196403797 2197.895323663234 452.5069149194155Q2201.4269814951886 456.0385727513699 2201.4269814951886 462.0757986397784L2201.4269814951886 462.0757986397784Q2201.4269814951886 467.7789487873264 2197.227172181513 471.71627001889715L2197.227172181513 471.71627001889715Q2193.122813079512 475.5104159329562 2187.1571748498595 475.5104159329562ZM2208.824372899958 593.3675647979745L2182.050588525277 593.3675647979745Q2169.1409473963085 593.3675647979745 2169.1409473963085 587.4973767799962L2169.1409473963085 587.4973767799962Q2169.1409473963085 584.4668325593327 2170.4772503597505 582.79645385503L2170.4772503597505 582.79645385503Q2172.481704804914 583.4646053367511 2174.175946062135 583.4646053367511L2174.175946062135 583.4646053367511Q2181.979000866521 583.4646053367511 2181.788100443172 573.5616458755276L2181.788100443172 573.5616458755276L2181.788100443172 517.3653337521994Q2181.788100443172 511.4951457342212 2180.1654468447064 509.1804781011159Q2178.5189306933225 506.8658104680107 2174.3429839325654 506.8658104680107L2174.3429839325654 506.8658104680107Q2171.240852053146 506.8658104680107 2168.7114214437734 507.6294121614062L2168.7114214437734 507.6294121614062Q2167.208080609901 507.7964500318365 2166.5399291281797 505.2908819753824L2166.5399291281797 505.2908819753824Q2165.9433653052147 503.0239394481144 2167.208080609901 501.3058356379744Q2168.448933361669 499.58773182783443 2171.0976767356346 497.67872759434556Q2173.7464201096004 495.7935859137753 2176.9440022006943 494.3856952915773L2176.9440022006943 494.3856952915773Q2183.816417441254 491.092662988809 2188.421890154546 491.092662988809Q2193.0512254207565 491.092662988809 2195.270442842187 492.4528285051698Q2197.4896602636177 493.789131468612 2198.65892535663 496.05607399588007L2198.65892535663 496.05607399588007Q2200.4963419313626 499.7547696982647 2200.4963419313626 507.96348790226676L2200.4963419313626 507.96348790226676L2200.4963419313626 574.9933990506443Q2200.7588300134676 581.627188762018 2205.2927150680034 583.0589419371347L2205.2927150680034 583.0589419371347Q2206.55743037269 583.4646053367511 2208.394846947423 583.7986810776116Q2210.2322635221562 584.1327568184721 2211.71174180311 584.6100078768444Q2213.167357531145 585.063396382298 2214.0025468832964 585.6599602052632L2214.0025468832964 585.6599602052632Q2215.434300058413 586.7337750866008 2215.434300058413 589.167755484299L2215.434300058413 589.167755484299Q2215.434300058413 592.1982997049626 2214.1934473066453 593.7970907505095L2214.1934473066453 593.7970907505095Q2212.427618390668 593.3675647979745 2208.824372899958 593.3675647979745L2208.824372899958 593.3675647979745ZM2227.6042020469044 547.0503495829512L2227.6042020469044 547.0503495829512Q2227.6042020469044 536.8133143808672 2229.608656492068 528.6761838356208Q2231.63697349015 520.5390532903746 2235.1447687691857 514.3347895315359Q2238.67642660114 508.13052577269707 2243.448937184862 503.7398160356727Q2248.245310321503 499.3252437457297 2253.685972386946 496.5571876071709L2253.685972386946 496.5571876071709Q2264.352533541565 491.092662988809 2277.0951368001033 491.092662988809L2277.0951368001033 491.092662988809Q2293.4648481022705 491.092662988809 2304.871148397366 503.0239394481144L2304.871148397366 503.0239394481144Q2317.5421639971487 516.100618447513 2317.5421639971487 537.5769160742627L2317.5421639971487 537.5769160742627Q2317.5421639971487 565.7585910711418 2302.174679917563 581.4601508915878L2302.174679917563 581.4601508915878Q2288.8355128360595 594.9663558435215 2270.2227215595435 594.9663558435215L2270.2227215595435 594.9663558435215Q2250.750878377957 594.9663558435215 2239.0105023420006 581.2931130211575L2239.0105023420006 581.2931130211575Q2227.6042020469044 568.1209838100843 2227.6042020469044 547.0503495829512ZM2275.162270013696 581.2931130211575L2275.162270013696 581.2931130211575Q2280.793832502488 581.2931130211575 2285.2322673453496 578.6443696471916Q2289.69456474113 575.9956262732259 2292.796696620549 571.390153559934L2292.796696620549 571.390153559934Q2299.000960379388 561.8212698395712 2299.000960379388 546.5492359716602L2299.000960379388 546.5492359716602Q2299.000960379388 529.773861269877 2292.4626208796885 518.0334852339205L2292.4626208796885 518.0334852339205Q2285.0652294749193 504.52728028198686 2271.224948782125 504.52728028198686L2271.224948782125 504.52728028198686Q2260.081136569134 504.52728028198686 2253.3518966460856 513.0939367797681L2253.3518966460856 513.0939367797681Q2246.216993323421 522.1378443359215 2246.216993323421 538.412105426414L2246.216993323421 538.412105426414Q2246.216993323421 558.8145881718262 2255.2131757737375 570.6265518665385L2255.2131757737375 570.6265518665385Q2263.254856107309 581.2931130211575 2275.162270013696 581.2931130211575Z " fill="#C6FFB8 " transform="matrix(0.37755515706607934,0,0,0.3775551570660794,0,103.6840221057237)"/></g></svg>